# Blender v2.91.2 OBJ File: ''
# www.blender.org
mtllib Triangle.mtl
o Cube
v 0.656510 1.000000 0.656510
v 0.656510 -1.000000 0.656510
v -0.656510 1.000000 -0.656510
v -0.656510 -1.000000 -0.656510
v -1.000000 1.000000 1.000000
v -1.000000 -1.000000 1.000000
vt 0.375000 0.250000
vt 0.625000 0.250000
vt 0.625000 0.750000
vt 0.375000 0.750000
vt 0.625000 1.000000
vt 0.375000 1.000000
vt 0.375000 0.000000
vt 0.625000 0.000000
vn 0.7071 0.0000 -0.7071
vn 0.2030 0.0000 0.9792
vn -0.9792 0.0000 -0.2030
vn 0.0000 1.0000 0.0000
vn 0.0000 -1.0000 0.0000
usemtl Material
s off
f 4/1/1 3/2/1 1/3/1 2/4/1
f 2/4/2 1/3/2 5/5/2 6/6/2
f 6/7/3 5/8/3 3/2/3 4/1/3
f 5/8/4 1/3/4 3/2/4
f 4/1/5 2/4/5 6/6/5
